<?xml version="1.0" encoding="UTF-8" standalone="no"?>
<svg
   xmlns:dc="http://purl.org/dc/elements/1.1/"
   xmlns:cc="http://creativecommons.org/ns#"
   xmlns:rdf="http://www.w3.org/1999/02/22-rdf-syntax-ns#"
   xmlns:svg="http://www.w3.org/2000/svg"
   xmlns="http://www.w3.org/2000/svg"
   xmlns:sodipodi="http://sodipodi.sourceforge.net/DTD/sodipodi-0.dtd"
   xmlns:inkscape="http://www.inkscape.org/namespaces/inkscape"
   version="1.1"
   id="Circle"
   x="0px"
   y="0px"
   viewBox="0 0 20 20"
   xml:space="preserve"
   sodipodi:docname="circle.svg"
   inkscape:version="1.0.1 (c497b03c, 2020-09-10)"><defs
     id="defs17" /><sodipodi:namedview
     pagecolor="#ffffff"
     bordercolor="#666666"
     borderopacity="1"
     objecttolerance="10"
     gridtolerance="10"
     guidetolerance="8"
     inkscape:pageopacity="0"
     inkscape:pageshadow="0"
     inkscape:window-width="1440"
     inkscape:window-height="773"
     id="namedview15"
     showgrid="true"
     inkscape:zoom="16.574207"
     inkscape:cx="10.578132"
     inkscape:cy="10.569928"
     inkscape:window-x="0"
     inkscape:window-y="23"
     inkscape:window-maximized="0"
     inkscape:current-layer="Circle" /><path
     d="m 10,0.4 c -5.3019336,0 -9.6,4.2980664 -9.6,9.6 2.7614e-4,5.301937 4.2985665,9.599772 9.6005,9.599496 C 15.302433,19.59922 19.600276,15.300937 19.6,9.999 19.6,4.698 15.301,0.4 10,0.4 Z m 0,17.923017 C 5.7688253,18.371554 1.7094799,14.291285 1.7094799,10.059835 1.7094799,5.8283849 5.7688253,1.6274462 10,1.6759835 c 4.231175,-0.048537 8.169851,4.0920667 8.169851,8.3235165 0,4.23145 -3.938676,8.372054 -8.169851,8.323517 z"
     id="path10"
     sodipodi:nodetypes="scscscscsc" /><metadata
     id="metadata12"><rdf:RDF><rdf:Description
         about="https://iconscout.com/legal#licenses"
         dc:title="circle"
         dc:description="circle"
         dc:publisher="Iconscout"
         dc:date="2017-09-14"
         dc:format="image/svg+xml"
         dc:language="en"><dc:creator><rdf:Bag><rdf:li>Daniel Bruce</rdf:li></rdf:Bag></dc:creator></rdf:Description><cc:Work
         rdf:about=""><dc:format>image/svg+xml</dc:format><dc:type
           rdf:resource="http://purl.org/dc/dcmitype/StillImage" /></cc:Work></rdf:RDF></metadata><path
     style="fill:#3238dc;fill-rule:evenodd;stroke:#3238dc;stroke-width:0.0603347;stroke-opacity:1;fill-opacity:1"
     d="M 8.7982584,19.49809 C 7.4017802,19.304855 5.9603984,18.775984 4.8463349,18.04805 2.6915287,16.64009 1.2081944,14.510132 0.65597911,12.03101 -0.06152788,8.8098248 0.99227689,5.381755 3.404318,3.0905518 4.7472256,1.8149209 6.5074882,0.91932047 8.3457481,0.57641185 c 0.899602,-0.16781158 2.6074669,-0.1526034 3.4692459,0.0308929 4.3224,0.92035715 7.437783,4.43808055 7.714404,8.71069155 0.313446,4.8413977 -2.917905,9.0808347 -7.672149,10.0656327 -0.696704,0.144315 -2.3863352,0.207538 -3.0589906,0.114461 z m 2.7753966,-1.318237 c 1.387568,-0.317383 2.706119,-1.047417 3.817391,-2.113548 1.421829,-1.364073 2.280418,-2.86724 2.674214,-4.681859 0.143946,-0.663303 0.143946,-2.1120929 0,-2.7753964 C 17.690318,6.8813133 16.897284,5.4512614 15.588108,4.1420859 14.340461,2.894439 13.148756,2.2046706 11.573655,1.8184894 11.089133,1.6996947 10.846492,1.6781885 10.004953,1.6794489 8.6164193,1.6815287 7.7921337,1.882644 6.5778083,2.5156287 5.6936434,2.9765127 5.065927,3.4428419 4.3037378,4.205031 3.302308,5.2064608 2.5995846,6.2846611 2.1527752,7.5052888 1.1030919,10.372894 1.8702675,13.422793 4.2379633,15.794934 c 1.3610956,1.36365 3.0670394,2.25895 4.7607186,2.498482 0.5847182,0.0827 1.9874111,0.02083 2.5749731,-0.113563 z"
     id="path19" /><path
     style="fill:#1a0578;fill-opacity:1;fill-rule:evenodd;stroke:#1a0578;stroke-width:0.0603347;stroke-opacity:1"
     d="M 8.4231382,19.397974 C 6.3041903,18.986399 4.6377416,18.10925 3.2082527,16.653075 0.80569712,14.205669 -0.10578456,10.651457 0.83583555,7.4021231 1.6022159,4.7575047 3.4518453,2.5824364 5.9340522,1.4068848 7.6679172,0.58574139 9.2854878,0.32565376 11.2247,0.55620664 c 1.408645,0.16747381 2.852498,0.73274456 4.210377,1.64837006 0.748951,0.5050221 2.004659,1.7686605 2.490239,2.505966 0.847501,1.2868493 1.427925,2.8818978 1.554963,4.2731547 0.03938,0.4313003 0.04067,1.5819036 0.0022,1.9482386 -0.164337,1.563945 -0.848697,3.359463 -1.768168,4.639038 -1.516154,2.109946 -4.063115,3.617611 -6.540935,3.871883 -1.117707,0.114698 -2.0030022,0.10025 -2.7502102,-0.04488 z m 2.7885088,-1.131383 c 1.364326,-0.16899 2.943858,-0.995485 4.216327,-2.206205 1.276578,-1.214628 2.073884,-2.532113 2.555905,-4.223429 0.154201,-0.541062 0.163355,-0.644178 0.163355,-1.840209 0,-1.1960307 -0.0092,-1.299147 -0.163355,-1.8402087 C 17.513373,6.5056265 16.793378,5.3047419 15.524051,4.0537789 14.451466,2.9967116 13.474908,2.3847251 12.206266,1.9746008 11.183771,1.6440501 10.162997,1.5705538 8.7982584,1.7292225 7.9661559,1.8259652 6.6133648,2.3840598 5.6825806,3.0145965 3.5428079,4.464133 1.9825504,6.8855113 1.7277971,9.152062 c -0.2786886,2.479504 0.590043,4.764895 2.5457469,6.697153 0.9655411,0.953966 2.0464958,1.651722 3.2399495,2.091388 0.8614626,0.317361 1.4068408,0.401887 2.4612918,0.381466 0.5143537,-0.01 1.0709407,-0.03493 1.2368617,-0.05548 z"
     id="path1421" /></svg>
